<?xml version="1.0" encoding="UTF-8" standalone="no"?>
<!DOCTYPE svg PUBLIC "-//W3C//DTD SVG 20010904//EN"
              "http://www.w3.org/TR/2001/REC-SVG-20010904/DTD/svg10.dtd">

<svg xmlns="http://www.w3.org/2000/svg"
     width="2.88889in" height="3.05556in"
     viewBox="0 0 208 220">
  <path id="dark"
        fill="white" stroke="white" stroke-width="5"
        d="M 103.00,0.00
           C 103.00,0.00 111.26,17.00 111.26,17.00
             111.26,17.00 129.25,54.00 129.25,54.00
             131.54,58.58 139.09,72.54 138.26,77.00
             138.26,77.00 126.31,103.00 126.31,103.00
             126.31,103.00 97.86,164.00 97.86,164.00
             97.86,164.00 78.75,205.00 78.75,205.00
             72.37,217.89 74.48,218.98 64.00,219.00
             64.00,219.00 23.00,219.00 23.00,219.00
             15.90,219.00 6.74,218.36 0.00,220.00
             0.00,220.00 7.58,201.00 7.58,201.00
             7.58,201.00 27.74,158.00 27.74,158.00
             27.74,158.00 37.31,137.00 37.31,137.00
             37.31,137.00 74.31,58.00 74.31,58.00
             74.31,58.00 89.26,26.00 89.26,26.00
             89.26,26.00 101.00,0.00 101.00,0.00
             101.00,0.00 103.00,0.00 103.00,0.00 Z
           M 183.00,165.00
           C 183.00,165.00 199.26,200.00 199.26,200.00
             199.26,200.00 208.00,220.00 208.00,220.00
             208.00,220.00 180.00,219.00 180.00,219.00
             180.00,219.00 153.00,220.00 153.00,220.00
             154.39,212.61 159.14,205.57 162.69,199.00
             162.69,199.00 181.00,165.00 181.00,165.00
             181.00,165.00 183.00,165.00 183.00,165.00 Z" />

  <path id="light"
        fill="none" stroke="white" stroke-width="5"
        d="M 160.00,32.00
           C 160.00,32.00 187.75,90.00 187.75,90.00
             187.75,90.00 196.42,108.00 196.42,108.00
             196.42,108.00 199.58,117.00 199.58,117.00
             199.58,117.00 195.00,128.00 195.00,128.00
             195.00,128.00 187.00,143.00 187.00,143.00
             187.00,143.00 157.00,199.00 157.00,199.00
             157.00,199.00 145.61,217.98 145.61,217.98
             145.61,217.98 138.00,219.00 138.00,219.00
             138.00,219.00 73.00,219.00 73.00,219.00
             73.00,219.00 91.69,178.00 91.69,178.00
             91.69,178.00 135.14,85.00 135.14,85.00
             135.14,85.00 141.43,69.00 141.43,69.00
             141.43,69.00 158.00,32.00 158.00,32.00
             158.00,32.00 160.00,32.00 160.00,32.00 Z" />

  <script type="application/ecmascript">
    <![CDATA[
    // when used as an object, we'll allow attributes to be changed by params passed in the query string
    var paramList = ['color'];
    var refs = [];
    var href = document.defaultView.location.href;
    if (-1 != href.indexOf("?")) {
      var paramList = href.split("?")[1].split(/&|;/);
      for (var p = 0, pLen = paramList.length; pLen > p; p++) {
        var eachParam = paramList[p];
        var valList = eachParam.split("=");
        var name = unescape(valList[0]);
        var value = unescape(valList[1]);
        refs[name] = value;
      }
    }
    // do stuff with the params
    var dark = document.getElementById("dark");
    var light = document.getElementById("light");
    var colorcode = refs['color'];
    dark.setAttribute("fill", colorcode);
    dark.setAttribute("stoke", colorcode);
    light.setAttribuge("stroke", colorcode);

    ]]>
  </script>
</svg>
