<?xml version="1.0" encoding="UTF-8" standalone="no"?>
<!DOCTYPE svg PUBLIC "-//W3C//DTD SVG 20010904//EN"
              "http://www.w3.org/TR/2001/REC-SVG-20010904/DTD/svg10.dtd">

<svg xmlns="http://www.w3.org/2000/svg"
     width="70.5467mm" height="70.5467mm"
     viewBox="0 0 200 200">
  <path id="Selection"
        fill="#798d99" stroke="none" stroke-width="1"
        d="M 11.00,54.00
           C 11.00,54.00 23.00,54.00 23.00,54.00
             23.00,54.00 23.00,25.00 23.00,25.00
             23.00,25.00 51.00,25.00 51.00,25.00
             51.00,25.00 51.00,13.00 51.00,13.00
             51.00,13.00 22.00,13.00 22.00,13.00
             18.80,13.02 15.78,12.85 13.31,15.31
             10.85,17.78 11.02,20.80 11.00,24.00
             11.00,24.00 11.00,54.00 11.00,54.00 Z
           M 149.00,13.00
           C 149.00,13.00 149.00,25.00 149.00,25.00
             149.00,25.00 178.00,25.00 178.00,25.00
             178.00,25.00 178.00,54.00 178.00,54.00
             178.00,54.00 190.00,54.00 190.00,54.00
             190.00,54.00 190.00,24.00 190.00,24.00
             189.95,20.86 189.96,17.82 187.57,15.43
             185.18,13.04 182.14,13.05 179.00,13.00
             179.00,13.00 149.00,13.00 149.00,13.00 Z
           M 93.00,43.42
           C 83.35,44.88 75.71,46.53 67.00,51.31
             56.28,57.20 41.64,72.22 32.00,80.72
             32.00,80.72 18.00,93.17 18.00,93.17
             16.30,94.74 13.20,97.50 13.20,100.00
             13.20,102.50 16.30,105.26 18.00,106.83
             18.00,106.83 32.00,119.28 32.00,119.28
             53.58,138.30 67.65,156.64 99.00,157.00
             130.60,157.35 147.51,139.34 169.00,119.03
             169.00,119.03 183.00,106.42 183.00,106.42
             184.75,104.87 187.80,102.58 187.80,100.00
             187.80,97.42 184.75,95.13 183.00,93.58
             183.00,93.58 168.00,80.00 168.00,80.00
             145.91,58.98 125.97,39.40 93.00,43.42 Z
           M 96.00,57.29
           C 103.45,56.59 109.93,57.62 117.00,60.00
             123.55,62.21 127.84,64.35 133.00,69.09
             139.12,74.72 142.55,79.22 145.53,87.00
             156.86,116.50 128.04,144.09 99.00,142.96
             75.25,142.04 53.00,125.08 53.00,100.00
             53.00,93.99 53.76,89.51 56.32,84.00
             58.06,80.26 61.36,75.06 64.18,72.09
             73.08,62.71 83.66,59.17 96.00,57.29 Z
           M 96.00,73.46
           C 88.95,75.03 84.07,77.18 79.39,83.01
             75.48,87.88 74.07,92.88 74.00,99.00
             73.84,114.69 83.01,125.61 99.00,126.82
             129.40,129.12 138.59,84.30 109.00,74.60
             104.46,73.11 100.70,72.83 96.00,73.46 Z
           M 107.00,82.00
           C 108.46,86.53 109.49,86.45 114.00,86.00
             113.86,87.79 113.89,89.29 112.98,90.94
             109.02,98.16 100.15,92.88 101.84,87.04
             102.62,84.35 104.78,83.27 107.00,82.00 Z
           M 11.00,146.00
           C 11.00,146.00 11.00,177.00 11.00,177.00
             11.06,179.92 11.05,182.38 13.31,184.57
             15.97,187.15 19.58,186.98 23.00,187.00
             23.00,187.00 51.00,187.00 51.00,187.00
             51.00,187.00 51.00,175.00 51.00,175.00
             51.00,175.00 23.00,175.00 23.00,175.00
             23.00,175.00 23.00,146.00 23.00,146.00
             23.00,146.00 11.00,146.00 11.00,146.00 Z
           M 178.00,146.00
           C 178.00,146.00 178.00,175.00 178.00,175.00
             178.00,175.00 149.00,175.00 149.00,175.00
             149.00,175.00 149.00,187.00 149.00,187.00
             149.00,187.00 179.00,187.00 179.00,187.00
             182.14,186.95 185.18,186.96 187.57,184.57
             189.96,182.18 189.95,179.14 190.00,176.00
             190.00,176.00 190.00,146.00 190.00,146.00
             190.00,146.00 178.00,146.00 178.00,146.00 Z" />
</svg>
